HIERARCHY
ROOT Zhanghao:Solving:Hips
{
	OFFSET 0.000000 0.000000 0.000000
	CHANNELS 6 Xposition Yposition Zposition Xrotation Yrotation Zrotation
	JOINT Zhanghao:Solving:Spine
	{
		OFFSET 0.000000 -9.563771 2.098718
		CHANNELS 6 Xposition Yposition Zposition Xrotation Yrotation Zrotation
		JOINT Zhanghao:Solving:Spine1
		{
			OFFSET 0.000000 -9.562875 1.686196
			CHANNELS 6 Xposition Yposition Zposition Xrotation Yrotation Zrotation
			JOINT Zhanghao:Solving:Spine2
			{
				OFFSET 0.000000 -9.673449 0.846319
				CHANNELS 6 Xposition Yposition Zposition Xrotation Yrotation Zrotation
				JOINT Zhanghao:Solving:Spine3
				{
					OFFSET 0.000000 -9.710396 0.000000
					CHANNELS 6 Xposition Yposition Zposition Xrotation Yrotation Zrotation
					JOINT Zhanghao:Solving:Neck
					{
						OFFSET 0.000000 -12.484798 -1.248478
						CHANNELS 6 Xposition Yposition Zposition Xrotation Yrotation Zrotation
						JOINT Zhanghao:Solving:Neck1
						{
							OFFSET 0.000000 -5.748112 -0.502893
							CHANNELS 6 Xposition Yposition Zposition Xrotation Yrotation Zrotation
							JOINT Zhanghao:Solving:Head
							{
								OFFSET 0.000000 -5.682407 -1.001961
								CHANNELS 6 Xposition Yposition Zposition Xrotation Yrotation Zrotation
								JOINT Zhanghao:Solving:HeadEnd
								{
									OFFSET 0.000000 -9.728077 0.000002
									CHANNELS 6 Xposition Yposition Zposition Xrotation Yrotation Zrotation
									End Site
									{
										OFFSET 0.000000 -9.728081 0.000002
									}
								}
							}
						}
					}
					JOINT Zhanghao:Solving:RightShoulder
					{
						OFFSET 0.000000 -8.917713 -5.270916
						CHANNELS 6 Xposition Yposition Zposition Xrotation Yrotation Zrotation
						JOINT Zhanghao:Solving:RightArm
						{
							OFFSET -18.341640 -0.000008 0.000000
							CHANNELS 6 Xposition Yposition Zposition Xrotation Yrotation Zrotation
							JOINT Zhanghao:Solving:RightForeArm
							{
								OFFSET -27.519978 -0.000008 0.000000
								CHANNELS 6 Xposition Yposition Zposition Xrotation Yrotation Zrotation
								JOINT Zhanghao:Solving:RightHand
								{
									OFFSET -22.582626 -0.000008 0.000000
									CHANNELS 6 Xposition Yposition Zposition Xrotation Yrotation Zrotation
									JOINT Zhanghao:Solving:RightHandThumb1
									{
										OFFSET -4.292824 2.781349 -3.192099
										CHANNELS 6 Xposition Yposition Zposition Xrotation Yrotation Zrotation
										End Site
										{
											OFFSET -6.150612 -0.000004 -6.207481
										}
									}
									JOINT Zhanghao:Solving:RightHandMiddle1
									{
										OFFSET -11.447525 -0.000004 0.073382
										CHANNELS 6 Xposition Yposition Zposition Xrotation Yrotation Zrotation
										End Site
										{
											OFFSET -8.738586 -0.000004 0.000000
										}
									}
								}
							}
						}
					}
					JOINT Zhanghao:Solving:LeftShoulder
					{
						OFFSET 0.000000 -8.917713 -5.270916
						CHANNELS 6 Xposition Yposition Zposition Xrotation Yrotation Zrotation
						JOINT Zhanghao:Solving:LeftArm
						{
							OFFSET 18.341640 -0.000008 0.000000
							CHANNELS 6 Xposition Yposition Zposition Xrotation Yrotation Zrotation
							JOINT Zhanghao:Solving:LeftForeArm
							{
								OFFSET 27.519978 -0.000008 0.000000
								CHANNELS 6 Xposition Yposition Zposition Xrotation Yrotation Zrotation
								JOINT Zhanghao:Solving:LeftHand
								{
									OFFSET 22.582626 -0.000008 0.000000
									CHANNELS 6 Xposition Yposition Zposition Xrotation Yrotation Zrotation
									JOINT Zhanghao:Solving:LeftHandThumb1
									{
										OFFSET 4.292824 2.781349 -3.192099
										CHANNELS 6 Xposition Yposition Zposition Xrotation Yrotation Zrotation
										End Site
										{
											OFFSET 6.150612 -0.000004 -6.207481
										}
									}
									JOINT Zhanghao:Solving:LeftHandMiddle1
									{
										OFFSET 11.447525 -0.000004 0.073382
										CHANNELS 6 Xposition Yposition Zposition Xrotation Yrotation Zrotation
										End Site
										{
											OFFSET 8.738586 -0.000004 0.000000
										}
									}
								}
							}
						}
					}
				}
			}
		}
	}
	JOINT Zhanghao:Solving:RightUpLeg
	{
		OFFSET -9.107882 0.000000 0.000000
		CHANNELS 6 Xposition Yposition Zposition Xrotation Yrotation Zrotation
		JOINT Zhanghao:Solving:RightLeg
		{
			OFFSET 0.000000 38.746075 -0.000006
			CHANNELS 6 Xposition Yposition Zposition Xrotation Yrotation Zrotation
			JOINT Zhanghao:Solving:RightFoot
			{
				OFFSET 0.000000 37.141575 -0.000006
				CHANNELS 6 Xposition Yposition Zposition Xrotation Yrotation Zrotation
				JOINT Zhanghao:Solving:RightForeFoot
				{
					OFFSET 0.000000 3.208229 -0.000000
					CHANNELS 6 Xposition Yposition Zposition Xrotation Yrotation Zrotation
					JOINT Zhanghao:Solving:RightToeBase
					{
						OFFSET 0.000000 0.000000 -12.564445
						CHANNELS 6 Xposition Yposition Zposition Xrotation Yrotation Zrotation
						JOINT Zhanghao:Solving:RightToeBaseEnd
						{
							OFFSET 0.000000 0.000000 -4.358174
							CHANNELS 6 Xposition Yposition Zposition Xrotation Yrotation Zrotation
							End Site
							{
								OFFSET 0.000000 -4.358177 0.000000
							}
						}
					}
				}
			}
		}
	}
	JOINT Zhanghao:Solving:LeftUpLeg
	{
		OFFSET 9.107882 0.000000 0.000000
		CHANNELS 6 Xposition Yposition Zposition Xrotation Yrotation Zrotation
		JOINT Zhanghao:Solving:LeftLeg
		{
			OFFSET 0.000000 38.746075 -0.000006
			CHANNELS 6 Xposition Yposition Zposition Xrotation Yrotation Zrotation
			JOINT Zhanghao:Solving:LeftFoot
			{
				OFFSET 0.000000 37.141575 -0.000006
				CHANNELS 6 Xposition Yposition Zposition Xrotation Yrotation Zrotation
				JOINT Zhanghao:Solving:LeftForeFoot
				{
					OFFSET 0.000000 3.208229 -0.000000
					CHANNELS 6 Xposition Yposition Zposition Xrotation Yrotation Zrotation
					JOINT Zhanghao:Solving:LeftToeBase
					{
						OFFSET 0.000000 0.000000 -12.564445
						CHANNELS 6 Xposition Yposition Zposition Xrotation Yrotation Zrotation
						JOINT Zhanghao:Solving:LeftToeBaseEnd
						{
							OFFSET 0.000000 0.000000 -4.448388
							CHANNELS 6 Xposition Yposition Zposition Xrotation Yrotation Zrotation
							End Site
							{
								OFFSET 0.000000 -4.448387 0.000000
							}
						}
					}
				}
			}
		}
	}
}
MOTION
Frames: 4
Frame Time: 0.041667
3.573833 -132.168350 -82.303490 84.019038 -4.949052 -2.076608 0.000002 -9.563781 2.098696 13.890746 -0.468298 1.735219 0.000000 -9.562874 1.686208 -1.152861 -0.071547 -0.465639 -0.000001 -9.673436 0.846319 -2.170174 -1.092433 -1.036048 0.000001 -9.710390 -0.000036 0.139674 0.250362 -2.082808 -0.000001 -12.484825 -1.248438 -6.910948 0.815549 1.240615 0.000002 -5.748113 -0.502869 1.647565 7.160729 0.925944 0.000000 -5.682404 -1.001984 4.796867 0.429265 0.374337 0.000000 -9.728092 0.000050 0.000000 -0.000000 0.000000 -0.000001 -8.917725 -5.270885 -0.000004 13.287488 -4.189875 -18.341629 0.000015 0.000032 8.116153 -23.059728 -73.169508 -27.520002 0.000013 0.000008 -18.610215 -9.718295 -3.253309 -22.582609 0.000003 0.000019 0.336672 -4.448766 4.332103 -4.292819 2.781347 -3.192116 -0.000001 0.000007 -0.000002 -11.447541 -0.000014 0.073386 -0.000001 0.000000 -0.000001 -0.000001 -8.917725 -5.270885 -0.000001 -9.948835 2.390319 18.341623 0.000011 -0.000002 11.673709 34.804899 74.445176 27.519999 -0.000010 0.000016 -8.507871 15.714015 2.320048 22.582615 -0.000003 0.000024 -0.289592 1.722839 9.543462 4.292809 2.781350 -3.192113 -0.000004 -0.000007 -0.000001 11.447525 -0.000007 0.073407 -0.000004 -0.000001 0.000000 -9.107882 -0.000007 -0.000001 13.873928 15.712066 6.385720 -0.000013 38.746075 0.000032 -10.697377 -0.000000 -0.000001 0.000000 37.141594 -0.000003 9.312129 28.064680 -12.556674 0.000002 3.208214 -0.000011 0.000000 -0.000002 -0.000000 -0.000010 0.000006 -12.564426 20.864539 -0.000002 -0.000001 -0.000008 -0.000009 -4.358167 -0.000004 0.000004 -0.000001 9.107886 0.000004 0.000015 17.787122 1.360099 2.624180 -0.000001 38.746075 -0.000033 -14.316365 0.000001 -0.000001 0.000001 37.141582 0.000009 5.677990 -22.435332 0.791137 -0.000017 3.208221 -0.000016 -0.000000 -0.000003 -0.000000 0.000005 0.000001 -12.564479 17.443096 0.000002 0.000001 0.000000 -0.000008 -4.448392 -0.000001 0.000004 0.000002 
3.614226 -132.151138 -82.293991 83.958338 -4.945138 -2.083031 -0.000000 -9.563762 2.098700 13.910000 -0.464958 1.743291 0.000003 -9.562865 1.686241 -1.143781 -0.073678 -0.460581 0.000001 -9.673450 0.846325 -2.161473 -1.130436 -1.037576 0.000000 -9.710406 0.000023 0.129206 0.249530 -2.093851 0.000001 -12.484763 -1.248488 -6.949407 0.803454 1.233387 -0.000000 -5.748094 -0.502890 1.619141 7.213061 0.917352 -0.000000 -5.682400 -1.001933 4.745947 0.434436 0.348563 0.000001 -9.728069 0.000018 0.000000 0.000000 0.000000 0.000003 -8.917713 -5.270930 -0.000009 13.196357 -4.161713 -18.341629 -0.000019 0.000019 8.241824 -23.447285 -73.293496 -27.519991 -0.000005 -0.000007 -18.713101 -9.863913 -3.321042 -22.582626 0.000000 -0.000001 0.349537 -4.549326 4.398178 -4.292831 2.781339 -3.192103 0.000000 -0.000005 -0.000000 -11.447542 -0.000013 0.073410 0.000002 0.000000 -0.000002 0.000002 -8.917713 -5.270930 -0.000005 -9.933002 2.381163 18.341637 0.000014 -0.000001 11.686687 35.018793 74.585099 27.519981 0.000008 0.000031 -8.724600 15.957415 2.415871 22.582592 -0.000002 -0.000023 -0.288341 1.691008 9.678381 4.292859 2.781361 -3.192105 0.000000 -0.000003 0.000005 11.447563 -0.000003 0.073353 0.000001 0.000000 0.000000 -9.107884 0.000006 -0.000024 13.915137 15.776202 6.421377 0.000004 38.746078 -0.000056 -10.664224 0.000002 0.000001 0.000003 37.141586 -0.000018 9.296838 27.993274 -12.601563 0.000012 3.208221 -0.000026 0.000000 -0.000005 0.000000 0.000008 -0.000016 -12.564483 20.741582 0.000003 0.000000 -0.000004 -0.000015 -4.358176 0.000000 0.000007 -0.000000 9.107883 0.000009 -0.000011 17.866465 1.582762 2.626506 -0.000001 38.746082 -0.000016 -14.342284 -0.000001 -0.000001 0.000002 37.141579 0.000011 5.647678 -22.649992 0.759489 0.000018 3.208229 0.000035 -0.000000 -0.000004 -0.000000 -0.000006 -0.000003 -12.564447 17.479728 -0.000000 0.000002 -0.000004 -0.000001 -4.448391 -0.000004 0.000002 -0.000000 
3.652943 -132.132416 -82.282761 83.877107 -4.929505 -2.107831 -0.000002 -9.563783 2.098712 13.940531 -0.467108 1.764015 0.000002 -9.562878 1.686213 -1.140008 -0.075625 -0.451523 0.000001 -9.673440 0.846357 -2.139262 -1.165408 -1.035116 0.000001 -9.710389 -0.000010 0.130782 0.250841 -2.101375 -0.000004 -12.484763 -1.248442 -6.966952 0.784597 1.254774 -0.000000 -5.748120 -0.502864 1.564395 7.275856 0.871194 -0.000000 -5.682413 -1.001999 4.715044 0.440198 0.327975 0.000001 -9.728077 0.000006 0.000000 0.000000 0.000000 -0.000005 -8.917694 -5.270913 -0.000012 13.108964 -4.114066 -18.341637 0.000027 0.000011 8.307533 -23.825411 -73.424254 -27.519974 0.000001 0.000011 -18.946357 -10.025216 -3.419843 -22.582624 0.000003 0.000017 0.353629 -4.453546 4.544618 -4.292827 2.781355 -3.192124 0.000002 -0.000000 -0.000004 -11.447550 -0.000006 0.073351 -0.000000 0.000000 -0.000002 -0.000005 -8.917694 -5.270913 -0.000008 -9.902633 2.360492 18.341633 -0.000006 -0.000005 11.677222 35.238824 74.686513 27.520002 -0.000005 0.000028 -8.660552 16.201511 2.433540 22.582609 -0.000003 0.000013 -0.295574 1.688332 9.931955 4.292801 2.781360 -3.192107 -0.000001 -0.000009 -0.000001 11.447511 -0.000005 0.073337 -0.000000 0.000000 0.000001 -9.107883 -0.000008 -0.000007 13.980747 15.840501 6.472257 -0.000003 38.746078 -0.000033 -10.645550 -0.000001 0.000001 -0.000005 37.141586 -0.000004 9.267973 27.923335 -12.657852 0.000013 3.208221 -0.000041 0.000000 -0.000004 -0.000000 0.000034 -0.000010 -12.564461 20.830585 0.000006 -0.000002 0.000002 -0.000008 -4.358182 -0.000002 0.000005 -0.000001 9.107881 -0.000002 0.000017 17.972528 1.706440 2.657479 0.000001 38.746090 -0.000027 -14.367156 0.000001 -0.000001 -0.000001 37.141571 0.000016 5.623375 -22.766542 0.741485 -0.000002 3.208221 -0.000022 0.000000 0.000001 0.000000 -0.000011 -0.000007 -12.564461 17.474607 0.000003 -0.000002 -0.000005 -0.000000 -4.448399 -0.000002 0.000000 0.000001 
3.688472 -132.118729 -82.270584 83.795124 -4.898304 -2.130168 0.000000 -9.563776 2.098719 13.960532 -0.472039 1.781012 0.000003 -9.562879 1.686244 -1.131450 -0.078290 -0.444306 -0.000001 -9.673453 0.846316 -2.109584 -1.214422 -1.029479 0.000000 -9.710410 0.000064 0.148556 0.241822 -2.103860 -0.000003 -12.484790 -1.248463 -7.010845 0.785513 1.254734 -0.000001 -5.748111 -0.502867 1.546122 7.336366 0.874914 -0.000000 -5.682430 -1.001969 4.670839 0.446951 0.297012 0.000000 -9.728092 -0.000018 0.000000 0.000000 -0.000000 -0.000000 -8.917728 -5.270896 -0.000009 13.042525 -4.066693 -18.341633 0.000017 0.000001 8.315648 -24.192248 -73.518018 -27.519978 -0.000004 -0.000025 -19.175925 -10.111290 -3.493783 -22.582632 -0.000004 0.000010 0.354642 -4.434808 4.576629 -4.292841 2.781365 -3.192114 0.000001 0.000009 -0.000002 -11.447540 0.000009 0.073379 -0.000002 0.000000 -0.000000 -0.000001 -8.917732 -5.270896 -0.000006 -9.859583 2.327018 18.341625 0.000019 0.000005 11.616403 35.459183 74.768407 27.519991 -0.000000 -0.000020 -8.840118 16.413430 2.516308 22.582611 -0.000002 0.000021 -0.282960 1.619948 9.909688 4.292868 2.781345 -3.192087 0.000005 -0.000012 -0.000003 11.447564 -0.000021 0.073380 0.000005 -0.000001 0.000001 -9.107886 0.000005 -0.000035 14.048112 15.878993 6.520897 -0.000004 38.746056 -0.000045 -10.631984 0.000004 0.000001 0.000011 37.141598 0.000004 9.231465 27.875206 -12.706024 -0.000006 3.208221 -0.000013 0.000000 0.000001 -0.000000 0.000026 0.000010 -12.564455 20.877520 0.000011 -0.000002 -0.000003 -0.000015 -4.358178 -0.000002 0.000011 -0.000003 9.107882 -0.000011 0.000003 18.066503 1.682437 2.705758 0.000004 38.746082 -0.000035 -14.356329 -0.000001 -0.000001 -0.000003 37.141590 0.000011 5.563665 -22.753209 0.734697 -0.000001 3.208221 -0.000009 -0.000000 -0.000004 -0.000000 -0.000004 -0.000007 -12.564455 17.491020 -0.000004 0.000001 -0.000002 -0.000000 -4.448397 -0.000000 -0.000001 0.000001 
